<svg xmlns="http://www.w3.org/2000/svg" id="Layer_1" data-name="Layer 1" width="118" height="32" viewBox="0 0 548.67 137.2"><defs><style>.cls-1</style></defs><title>Society6 Logo</title><path d="M373.29,263.78a12.41,12.41,0,0,0,8.77-3.38,11.08,11.08,0,0,0,0-16.42,13,13,0,0,0-17.56,0,11,11,0,0,0,0,16.42A12.49,12.49,0,0,0,373.29,263.78Z" transform="translate(-121.67 -237.4)"></path><path d="M587.13,270.21l-1.32.06h0l-22.9,1-10.26,48.05a11.76,11.76,0,0,1-4.3,6.84,33.33,33.33,0,0,1-5.46,3.44,24.9,24.9,0,0,1-5.55,2.1,8.19,8.19,0,0,1-7.82-2.85,9.64,9.64,0,0,1-2-4.64,37.53,37.53,0,0,1,.42-3.74A43.6,43.6,0,0,1,529.1,315l5.29-18.81a32.06,32.06,0,0,0,1.16-6.44c.19-2.31.29-3.9.29-4.77a13.94,13.94,0,0,0-4.67-10.67Q526.5,270,517.9,270a31.08,31.08,0,0,0-6.48.75,6.59,6.59,0,0,0-1,.21h-.06a35,35,0,0,1-8.84,1.35H490.14l5.08-21.9h-23.4l-5.23,21.9h-7.77a3.72,3.72,0,1,0,0,7.44h5.77l-9,38.44c-.53,2.51-.91,4.55-1.15,6.14a32.63,32.63,0,0,0-.37,5.06,13.24,13.24,0,0,0,5.21,10.73q5.21,4.23,13.87,4.23a48.68,48.68,0,0,0,11.67-1.59A76.68,76.68,0,0,0,496.2,339a3.07,3.07,0,0,0-1.85-5.82l-.67.15a30.67,30.67,0,0,1-6.18.87q-4.69,0-7-1.59c-1.52-1.06-2.27-3-2.27-5.71a29.55,29.55,0,0,1,.47-3.76c.31-1.92.63-3.56,1-4.91l8.81-38.44H505a8.79,8.79,0,0,1,5.21,2c1.08,1,1.63,2.92,1.63,5.67a29.73,29.73,0,0,1-.69,5.16q-.69,3.51-1.19,5.53l-5.44,19.73a48.87,48.87,0,0,0-1.35,6.5c-.11,1-.18,2.07-.22,3.08a16.92,16.92,0,0,0,2.44,9.76q4.62,7.26,15.28,6.95l.46-.13-.15.09-.07,0s16.81.44,29.29-12a97.65,97.65,0,0,1-4.51,15.93c-.6,1.52-1.23,2.92-1.88,4.28-1.29,2.22-7,8.66-13.68,8.66-7,0-14.37-8.13-14.37-8.13v.19c-.53-.44-1.07-.85-1.64-1.24a12.05,12.05,0,0,0-7-2.1,10.36,10.36,0,0,0-8.08,3.26,10.73,10.73,0,0,0-3,7.44,12.55,12.55,0,0,0,1.05,4.88,10.64,10.64,0,0,0,3.93,4.51,24.83,24.83,0,0,0,8.84,3.51,67.29,67.29,0,0,0,14.26,1.26,57.58,57.58,0,0,0,15.52-2.13,43.6,43.6,0,0,0,14.22-7A47.08,47.08,0,0,0,566,351.88q5.19-8.56,8.09-21.72l12.61-58.25Z" transform="translate(-121.67 -237.4)"></path><path d="M430.92,307.62q10-2.75,15.89-8.42a18.22,18.22,0,0,0,5.85-13.55,15.54,15.54,0,0,0-1-5.81c-.07-.17-.14-.34-.21-.49a13.47,13.47,0,0,0-5.5-6.05q-6.77-4.12-19.69-4.12A51.2,51.2,0,0,0,406.13,273a44.42,44.42,0,0,0-15,10,43.27,43.27,0,0,0-9.46,14.45A44.32,44.32,0,0,0,378.46,314a34.52,34.52,0,0,0,2.09,12.28,27.33,27.33,0,0,0,3.08,5.87c.19.28.38.55.55.78l.27.34c-.31.09-.59.18-.94.27a18.44,18.44,0,0,1-4.9.76c-3.08,0-5.25-.5-6.5-1.52s-1.87-2.91-1.87-5.7a30.27,30.27,0,0,1,.58-4.92,57.52,57.52,0,0,1,1.3-5.78l5.94-21a32.7,32.7,0,0,0,1.2-6.35c.21-2.32.32-3.93.32-4.85a13.81,13.81,0,0,0-4.66-10.8q-4.68-4.15-13.28-4.15a33.33,33.33,0,0,0-10.13,1.7q-5.36,1.69-11.21,4.08v0c-.45-.39-.93-.76-1.44-1.12q-6.75-4.69-19.54-4.69a50.33,50.33,0,0,0-20,3.83,43,43,0,0,0-14.67,9.9,42,42,0,0,0-9.1,14.27,45.38,45.38,0,0,0-2.08,7.33,45.89,45.89,0,0,0,.32-5.27q0-14.24-9.43-22.22a31.54,31.54,0,0,0-11.56-6.11l2.57-4.73a3.87,3.87,0,0,0-3.4-5.73,3.92,3.92,0,0,0-3.43,2l-3.73,6.87a58.87,58.87,0,0,0-6.21-.32,56,56,0,0,0-20,3.51,46.22,46.22,0,0,0-15.61,9.5,43.9,43.9,0,0,0-13.58,32.23c0,1,0,1.93.11,2.87a16.28,16.28,0,0,0-4.79-10q-5-4.83-14.82-8.3c-2.84-1-5.21-1.82-7.12-2.57a23.3,23.3,0,0,1-4.73-2.42,8.59,8.59,0,0,1-2.64-2.89,9.43,9.43,0,0,1-1-4.29,8.62,8.62,0,0,1,1.16-3.82,7.94,7.94,0,0,1,6.67-4,10.3,10.3,0,0,1,9.15,5.48l0-.06c.25.5.47,1,.75,1.5a18.19,18.19,0,0,0,4.52,5.15,12.2,12.2,0,0,0,14.81-.68,9.1,9.1,0,0,0,3-6.83,10.78,10.78,0,0,0-2.13-6.75,15.23,15.23,0,0,0-6-4.52,34,34,0,0,0-8.74-2.38,73.59,73.59,0,0,0-10.19-.65,58.09,58.09,0,0,0-16,2,35.51,35.51,0,0,0-11.35,5.32,23.13,23.13,0,0,0-6.68,7.55,18.53,18.53,0,0,0-2.13,8.7,18,18,0,0,0,5.09,13,34.34,34.34,0,0,0,13.84,8.2q3.18,1.08,6.43,2.31a31,31,0,0,1,5.35,2.53,12.21,12.21,0,0,1,3.36,3.18,7.6,7.6,0,0,1,1.26,4.41h0s0,8.2-8.19,8.2a14.27,14.27,0,0,1-10.71-4.87c-.39-.51-.83-1.09-1.3-1.69h0c-.92-1.17-2-2.44-3-3.6a18.72,18.72,0,0,0-1.83-1.94,8.06,8.06,0,0,0-2.19-1.68l-.11,0a12.07,12.07,0,0,0-6.13-1.53,11.28,11.28,0,0,0-8.35,3.15,10,10,0,0,0-3.14,7.33,11.22,11.22,0,0,0,1.3,4.95,13.14,13.14,0,0,0,4.84,4.95,30.06,30.06,0,0,0,9.43,3.79,63.71,63.71,0,0,0,15.06,1.48,64.41,64.41,0,0,0,16.55-1.77,36.65,36.65,0,0,0,11.49-5.24A22,22,0,0,0,189.66,320c0-.47,0-.92,0-1.37a27,27,0,0,0,9.21,18,31.29,31.29,0,0,0,7,4.54l-2.7,5a3.26,3.26,0,0,0,2.87,4.82,5.45,5.45,0,0,0,4.8-2.85l2.4-4.4a46.75,46.75,0,0,0,10.54,1.12,56.68,56.68,0,0,0,20.7-3.58,48,48,0,0,0,16.08-10.15,42.67,42.67,0,0,0,9.83-14.45,45.08,45.08,0,0,0,2.59-8.46,48.6,48.6,0,0,0-.32,5.57q0,14.52,9.28,22.83t25.91,8.31a40.93,40.93,0,0,0,20.59-5.56,44.68,44.68,0,0,0,14.91-13.59,1.55,1.55,0,0,0-.29-2.05,5.33,5.33,0,0,0-7.42.52,31.87,31.87,0,0,1-7.6,6.48q-5.31,3.07-13.26,3.08t-12-5.93q-4.23-5.93-4.23-17.41,0-15.1,5.57-25.33a21.56,21.56,0,0,1,7-8.14,8.64,8.64,0,0,1,3.51-1c.32,0,.65,0,.93,0l.35.05a7,7,0,0,1,1,.15c5.47,1.61,4.07,12.74,4.07,12.74h0a17,17,0,0,0-.41,3.69q0,3,3.15,5.82t8.78,2.78a13.09,13.09,0,0,0,6.39-1.23,13.93,13.93,0,0,0,3.94-3.54,13,13,0,0,0,2.17-4.63,19.8,19.8,0,0,0,.72-5,15.79,15.79,0,0,0-1.54-7,16.24,16.24,0,0,1,3.55-.4q4.71,0,6.38,1.59c1.11,1.06,1.66,2.93,1.66,5.63a25.48,25.48,0,0,1-.54,5c-.36,1.81-.81,3.72-1.34,5.75l-6,21.09q-.8,3.33-1.15,6a38.21,38.21,0,0,0-.37,5.16,13.68,13.68,0,0,0,4.81,10.73q4.8,4.23,13.48,4.23a30.15,30.15,0,0,0,9.9-1.48q4.26-1.49,11.41-4.3l2.83-1a30.65,30.65,0,0,0,8.92,4.89,44.84,44.84,0,0,0,15.21,2.35,44.06,44.06,0,0,0,21.35-5.52,48.52,48.52,0,0,0,15.39-13.05,2.27,2.27,0,0,0-.38-3.11,4.66,4.66,0,0,0-6.45.4,33.45,33.45,0,0,1-8.56,7,29.6,29.6,0,0,1-14.48,3.29,15.47,15.47,0,0,1-8.1-1.92,13,13,0,0,1-4.91-5.16,24.2,24.2,0,0,1-2.17-6.79,55.21,55.21,0,0,1-.87-7.16q8.1-.86,13.7-1.88A126.13,126.13,0,0,0,430.92,307.62Zm-216.13,15a116,116,0,0,1,1.09-14.93,75,75,0,0,1,3.61-15.49q2.89-8.61,7.52-13.05a14.4,14.4,0,0,1,10.18-4.44,11.06,11.06,0,0,1,4.27.79l-26.63,49C214.81,323.86,214.79,323.23,214.79,322.58ZM247,307.08a80.68,80.68,0,0,1-3.83,15.35,35.54,35.54,0,0,1-6.86,11.92,13.35,13.35,0,0,1-10.26,4.85,9.76,9.76,0,0,1-8.35-3.9L247,281.58a28,28,0,0,1,1.36,9.49A104.61,104.61,0,0,1,247,307.08Zm160.44-.6c-1.18.18-2.37.35-3.57.49q1.38-13.87,6.32-22.94T420.73,275a8.32,8.32,0,0,1,1.9.21,7.08,7.08,0,0,1,4.31,3.08q2.24,3.28,2.24,9.43t-2.38,10a17,17,0,0,1-7.81,6.14,31.61,31.61,0,0,1-6.65,1.88C410.73,306,409.1,306.24,407.46,306.48Z" transform="translate(-121.67 -237.4)"></path><path d="M663,283.47a24.87,24.87,0,0,0-18.17-7.23c-.5,0-1,.05-1.45.06l-.52,0a40.06,40.06,0,0,0-10.52,1.49l-.07,0a51.59,51.59,0,0,0-14.5,6.54,113.93,113.93,0,0,1,5.05-11.67,50.39,50.39,0,0,1,7.77-11.26A55.76,55.76,0,0,1,642.05,252a55,55,0,0,1,14.43-6.24l2.88-.63,3.07-.51a3.75,3.75,0,0,0,3.16-3.07,3.64,3.64,0,0,0-4.06-4.14q-32.87,4.69-53.34,24.22-21.68,20.67-21.67,49.64,0,15.18,9.64,24.35T622,344.82q20.38,0,34.36-12.65t14-29.91Q670.33,290.7,663,283.47Zm-25.57,44.69q-5.94,10.59-14,10.59-5.19,0-8.32-5.35T612,318.51a80.14,80.14,0,0,1,1.3-15.71c.12-.6.24-1.17.35-1.72A19.29,19.29,0,0,1,621.29,289a16.48,16.48,0,0,1,4.42-2.21,20.26,20.26,0,0,1,5.42-.74,10.71,10.71,0,0,1,8.79,4.41q3.47,4.41,3.46,12Q643.38,317.58,637.43,328.16Z" transform="translate(-121.67 -237.4)"></path></svg>